<mxfile host="app.diagrams.net" modified="2021-08-27T04:58:04.676Z" agent="5.0 (Windows NT 10.0; Win64; x64) AppleWebKit/537.36 (KHTML, like Gecko) Chrome/92.0.4515.159 Safari/537.36" etag="fNK09grCNjv7-D_TJZ_F" version="14.9.8" type="github">
  <diagram id="dLFj_7tHULLpxuY2j0tu" name="Page-1">
    <mxGraphModel dx="723" dy="337" grid="1" gridSize="10" guides="1" tooltips="1" connect="1" arrows="1" fold="1" page="1" pageScale="1" pageWidth="827" pageHeight="1169" math="0" shadow="0">
      <root>
        <mxCell id="0" />
        <mxCell id="1" parent="0" />
        <mxCell id="YT5Wtx-dwPLHvlLU4Rnl-1" value="Buyers" style="shape=umlLifeline;perimeter=lifelinePerimeter;container=1;collapsible=0;recursiveResize=0;rounded=0;shadow=0;strokeWidth=1;fontSize=15;" vertex="1" parent="1">
          <mxGeometry x="585.3674963396779" y="30" width="96.63250366032213" height="490.00000000000006" as="geometry" />
        </mxCell>
        <mxCell id="YT5Wtx-dwPLHvlLU4Rnl-2" value="" style="points=[];perimeter=orthogonalPerimeter;rounded=0;shadow=0;strokeWidth=1;" vertex="1" parent="YT5Wtx-dwPLHvlLU4Rnl-1">
          <mxGeometry x="45.41727672035139" y="69.99999999999999" width="9.663250366032207" height="411.25000000000006" as="geometry" />
        </mxCell>
        <mxCell id="YT5Wtx-dwPLHvlLU4Rnl-4" value="Sellers" style="shape=umlLifeline;perimeter=lifelinePerimeter;container=1;collapsible=0;recursiveResize=0;rounded=0;shadow=0;strokeWidth=1;fontSize=15;" vertex="1" parent="1">
          <mxGeometry x="79" y="30" width="96.63250366032213" height="490.00000000000006" as="geometry" />
        </mxCell>
        <mxCell id="YT5Wtx-dwPLHvlLU4Rnl-5" value="" style="points=[];perimeter=orthogonalPerimeter;rounded=0;shadow=0;strokeWidth=1;" vertex="1" parent="YT5Wtx-dwPLHvlLU4Rnl-4">
          <mxGeometry x="45.48462664714496" y="47.638888888888886" width="9.663250366032207" height="435.5555555555556" as="geometry" />
        </mxCell>
        <mxCell id="YT5Wtx-dwPLHvlLU4Rnl-6" value="IPFS" style="shape=umlLifeline;perimeter=lifelinePerimeter;container=1;collapsible=0;recursiveResize=0;rounded=0;shadow=0;strokeWidth=1;fontSize=15;" vertex="1" parent="1">
          <mxGeometry x="235.93850658857983" y="30" width="96.63250366032213" height="490.00000000000006" as="geometry" />
        </mxCell>
        <mxCell id="YT5Wtx-dwPLHvlLU4Rnl-7" value="" style="points=[];perimeter=orthogonalPerimeter;rounded=0;shadow=0;strokeWidth=1;" vertex="1" parent="YT5Wtx-dwPLHvlLU4Rnl-6">
          <mxGeometry x="43.48462664714496" y="47.63499999999999" width="9.663250366032207" height="39.865" as="geometry" />
        </mxCell>
        <mxCell id="YT5Wtx-dwPLHvlLU4Rnl-8" value="(1)Upload Encrypted Data" style="verticalAlign=bottom;endArrow=block;entryX=0;entryY=0;shadow=0;strokeWidth=1;fontSize=12;labelBackgroundColor=none;exitX=1.123;exitY=0.031;exitDx=0;exitDy=0;exitPerimeter=0;" edge="1" parent="1" source="YT5Wtx-dwPLHvlLU4Rnl-5">
          <mxGeometry x="20" y="30" as="geometry">
            <mxPoint x="140" y="91" as="sourcePoint" />
            <mxPoint x="277.4231332357248" y="90.93055555555563" as="targetPoint" />
          </mxGeometry>
        </mxCell>
        <mxCell id="YT5Wtx-dwPLHvlLU4Rnl-9" value="(2)Return Data Hash" style="verticalAlign=bottom;endArrow=openThin;shadow=0;strokeWidth=1;dashed=1;endFill=0;fontSize=12;exitX=0.06;exitY=0.837;exitDx=0;exitDy=0;exitPerimeter=0;labelBackgroundColor=none;" edge="1" parent="1" source="YT5Wtx-dwPLHvlLU4Rnl-7">
          <mxGeometry x="17" y="30" as="geometry">
            <mxPoint x="274" y="111" as="sourcePoint" />
            <mxPoint x="137" y="111" as="targetPoint" />
          </mxGeometry>
        </mxCell>
        <mxCell id="YT5Wtx-dwPLHvlLU4Rnl-10" value="Blockchain" style="shape=umlLifeline;perimeter=lifelinePerimeter;container=1;collapsible=0;recursiveResize=0;rounded=0;shadow=0;strokeWidth=1;fontSize=15;" vertex="1" parent="1">
          <mxGeometry x="357.2474377745242" y="30" width="96.63250366032213" height="490.00000000000006" as="geometry" />
        </mxCell>
        <mxCell id="YT5Wtx-dwPLHvlLU4Rnl-11" value="" style="points=[];perimeter=orthogonalPerimeter;rounded=0;shadow=0;strokeWidth=1;" vertex="1" parent="YT5Wtx-dwPLHvlLU4Rnl-10">
          <mxGeometry x="43.48462664714496" y="54.44444444444445" width="9.663250366032207" height="428.75" as="geometry" />
        </mxCell>
        <mxCell id="YT5Wtx-dwPLHvlLU4Rnl-12" value="(3)Submit Sale Transaction  " style="verticalAlign=bottom;endArrow=block;shadow=0;strokeWidth=1;fontSize=12;labelBackgroundColor=none;exitX=1.036;exitY=0.142;exitDx=0;exitDy=0;exitPerimeter=0;" edge="1" parent="1" source="YT5Wtx-dwPLHvlLU4Rnl-5">
          <mxGeometry x="20" y="30" as="geometry">
            <mxPoint x="140" y="139" as="sourcePoint" />
            <mxPoint x="401.6983894582725" y="138.8888888888889" as="targetPoint" />
          </mxGeometry>
        </mxCell>
        <mxCell id="YT5Wtx-dwPLHvlLU4Rnl-13" value="&lt;span style=&quot;text-align: center&quot;&gt;(4)Publish Sale Transaction&amp;nbsp;&amp;nbsp;&lt;/span&gt;" style="edgeStyle=orthogonalEdgeStyle;html=1;align=left;spacingLeft=2;endArrow=block;rounded=0;entryX=1;entryY=0;labelBackgroundColor=none;" edge="1" parent="1">
          <mxGeometry as="geometry">
            <mxPoint x="411.3616398243045" y="147.05555555555554" as="sourcePoint" />
            <Array as="points">
              <mxPoint x="440.3513909224012" y="147.05555555555554" />
            </Array>
            <mxPoint x="416.1932650073206" y="160.66666666666666" as="targetPoint" />
            <mxPoint x="27" y="-4" as="offset" />
          </mxGeometry>
        </mxCell>
        <mxCell id="YT5Wtx-dwPLHvlLU4Rnl-14" value="(5)Select Data" style="html=1;verticalAlign=bottom;endArrow=open;endSize=8;labelBackgroundColor=none;" edge="1" parent="1">
          <mxGeometry x="20" y="30" as="geometry">
            <mxPoint x="631.183748169839" y="180.3611111111111" as="sourcePoint" />
            <mxPoint x="411.3616398243045" y="180.36111111111111" as="targetPoint" />
          </mxGeometry>
        </mxCell>
        <mxCell id="YT5Wtx-dwPLHvlLU4Rnl-15" value="(14)Submit Purchase Transaction" style="html=1;verticalAlign=bottom;endArrow=none;startArrow=block;startFill=1;endFill=0;labelBackgroundColor=none;" edge="1" parent="1">
          <mxGeometry x="20" y="30" width="80" as="geometry">
            <mxPoint x="410.39531478770124" y="384.5694444444444" as="sourcePoint" />
            <mxPoint x="630.2342606149342" y="384.5694444444444" as="targetPoint" />
          </mxGeometry>
        </mxCell>
        <mxCell id="YT5Wtx-dwPLHvlLU4Rnl-16" value="(16)Receive Purchase Request" style="verticalAlign=bottom;endArrow=openThin;shadow=0;strokeWidth=1;dashed=1;endFill=0;fontSize=12;entryX=0.571;entryY=0.795;entryDx=0;entryDy=0;entryPerimeter=0;labelBackgroundColor=none;" edge="1" parent="1">
          <mxGeometry x="27" y="30" as="geometry">
            <mxPoint x="397" y="424" as="sourcePoint" />
            <mxPoint x="137.00234260614934" y="423.9055555555557" as="targetPoint" />
            <mxPoint as="offset" />
          </mxGeometry>
        </mxCell>
        <mxCell id="YT5Wtx-dwPLHvlLU4Rnl-17" value="&lt;span style=&quot;text-align: center&quot;&gt;(15)Publish Purchase Transaction&amp;nbsp;&amp;nbsp;&lt;/span&gt;" style="edgeStyle=orthogonalEdgeStyle;html=1;align=left;spacingLeft=2;endArrow=block;rounded=0;entryX=1;entryY=0;labelBackgroundColor=none;" edge="1" parent="1">
          <mxGeometry as="geometry">
            <mxPoint x="410.39531478770124" y="397.5" as="sourcePoint" />
            <Array as="points">
              <mxPoint x="439.3850658857979" y="397.5" />
            </Array>
            <mxPoint x="415.22693997071735" y="411.1111111111111" as="targetPoint" />
            <mxPoint x="27" y="7" as="offset" />
          </mxGeometry>
        </mxCell>
        <mxCell id="YT5Wtx-dwPLHvlLU4Rnl-18" value="(17)Submit Response Transaction  " style="verticalAlign=bottom;endArrow=block;shadow=0;strokeWidth=1;fontSize=12;exitX=0.95;exitY=0.852;exitDx=0;exitDy=0;exitPerimeter=0;labelBackgroundColor=none;" edge="1" parent="1" source="YT5Wtx-dwPLHvlLU4Rnl-5">
          <mxGeometry x="20" y="30" as="geometry">
            <mxPoint x="140" y="448" as="sourcePoint" />
            <mxPoint x="401.6983894582725" y="447.8611111111111" as="targetPoint" />
          </mxGeometry>
        </mxCell>
        <mxCell id="YT5Wtx-dwPLHvlLU4Rnl-19" value="&lt;span style=&quot;text-align: center&quot;&gt;(18)Publish Response Transaction&amp;nbsp;&amp;nbsp;&lt;/span&gt;" style="edgeStyle=orthogonalEdgeStyle;html=1;align=left;spacingLeft=2;endArrow=block;rounded=0;entryX=1;entryY=0;labelBackgroundColor=none;" edge="1" parent="1">
          <mxGeometry as="geometry">
            <mxPoint x="412.32796486090774" y="457.38888888888886" as="sourcePoint" />
            <Array as="points">
              <mxPoint x="441.3177159590045" y="457.38888888888886" />
            </Array>
            <mxPoint x="417.1595900439238" y="471" as="targetPoint" />
            <mxPoint x="27" y="-7" as="offset" />
          </mxGeometry>
        </mxCell>
        <mxCell id="YT5Wtx-dwPLHvlLU4Rnl-20" value="" style="points=[];perimeter=orthogonalPerimeter;rounded=0;shadow=0;strokeWidth=1;" vertex="1" parent="1">
          <mxGeometry x="279.4231332357248" y="188.52777777777777" width="9.663250366032212" height="54.44444444444445" as="geometry" />
        </mxCell>
        <mxCell id="YT5Wtx-dwPLHvlLU4Rnl-21" value="&lt;span style=&quot;text-align: center&quot;&gt;(7)Select Data&lt;/span&gt;" style="edgeStyle=orthogonalEdgeStyle;html=1;align=left;spacingLeft=2;endArrow=block;rounded=0;entryX=1;entryY=0;labelBackgroundColor=none;" edge="1" parent="1">
          <mxGeometry y="5" as="geometry">
            <mxPoint x="290.05270863836023" y="209.86111111111111" as="sourcePoint" />
            <Array as="points">
              <mxPoint x="319.04245973645686" y="209.86111111111111" />
            </Array>
            <mxPoint x="294.88433382137623" y="223.4722222222222" as="targetPoint" />
            <mxPoint x="27" y="-2" as="offset" />
          </mxGeometry>
        </mxCell>
        <mxCell id="YT5Wtx-dwPLHvlLU4Rnl-22" value="(8)Return Data" style="verticalAlign=bottom;endArrow=none;shadow=0;strokeWidth=1;dashed=1;endFill=0;startArrow=openThin;startFill=0;fontSize=12;labelBackgroundColor=none;" edge="1" parent="1">
          <mxGeometry x="20" y="30" as="geometry">
            <mxPoint x="628.7847730600292" y="236.16666666666666" as="sourcePoint" />
            <mxPoint x="290" y="236" as="targetPoint" />
            <mxPoint as="offset" />
          </mxGeometry>
        </mxCell>
        <mxCell id="YT5Wtx-dwPLHvlLU4Rnl-23" value="(9)Submit Verification Transaction" style="html=1;verticalAlign=bottom;endArrow=none;startArrow=block;startFill=1;endFill=0;strokeWidth=1;labelBackgroundColor=none;" edge="1" parent="1">
          <mxGeometry x="20" y="30" width="80" as="geometry">
            <mxPoint x="409.4289897510981" y="261.3888888888889" as="sourcePoint" />
            <mxPoint x="631.2005856515374" y="261.3888888888889" as="targetPoint" />
          </mxGeometry>
        </mxCell>
        <mxCell id="YT5Wtx-dwPLHvlLU4Rnl-24" value="(10)Receive Verification Request" style="verticalAlign=bottom;endArrow=openThin;shadow=0;strokeWidth=1;dashed=1;endFill=0;fontSize=12;labelBackgroundColor=none;" edge="1" parent="1">
          <mxGeometry x="16" y="30" as="geometry">
            <mxPoint x="400" y="289" as="sourcePoint" />
            <mxPoint x="136" y="289" as="targetPoint" />
            <mxPoint as="offset" />
          </mxGeometry>
        </mxCell>
        <mxCell id="YT5Wtx-dwPLHvlLU4Rnl-25" value="(11)Submit Response Transaction  " style="verticalAlign=bottom;endArrow=block;shadow=0;strokeWidth=1;fontSize=12;labelBackgroundColor=none;" edge="1" parent="1">
          <mxGeometry x="20" y="30" as="geometry">
            <mxPoint x="137" y="312" as="sourcePoint" />
            <mxPoint x="400.7320644216693" y="312.43055555555554" as="targetPoint" />
          </mxGeometry>
        </mxCell>
        <mxCell id="YT5Wtx-dwPLHvlLU4Rnl-26" value="&lt;span style=&quot;text-align: center&quot;&gt;(12)Publish Response Transaction&amp;nbsp;&amp;nbsp;&lt;/span&gt;" style="edgeStyle=orthogonalEdgeStyle;html=1;align=left;spacingLeft=2;endArrow=block;rounded=0;entryX=1;entryY=0;labelBackgroundColor=none;" edge="1" parent="1">
          <mxGeometry as="geometry">
            <mxPoint x="411.3616398243045" y="319.23611111111114" as="sourcePoint" />
            <Array as="points">
              <mxPoint x="440.3513909224012" y="319.23611111111114" />
            </Array>
            <mxPoint x="416.1932650073206" y="332.84722222222223" as="targetPoint" />
            <mxPoint x="27" y="-7" as="offset" />
          </mxGeometry>
        </mxCell>
        <mxCell id="YT5Wtx-dwPLHvlLU4Rnl-27" value="(13)Return Verification Data" style="verticalAlign=bottom;endArrow=none;shadow=0;strokeWidth=1;dashed=1;endFill=0;startArrow=openThin;startFill=0;exitX=-0.3;exitY=0.887;exitDx=0;exitDy=0;exitPerimeter=0;fontSize=12;labelBackgroundColor=none;" edge="1" parent="1">
          <mxGeometry x="20" y="30" as="geometry">
            <mxPoint x="630.7174231332357" y="360.59347222222226" as="sourcePoint" />
            <mxPoint x="410.39531478770124" y="360.0694444444444" as="targetPoint" />
            <mxPoint as="offset" />
          </mxGeometry>
        </mxCell>
        <mxCell id="YT5Wtx-dwPLHvlLU4Rnl-28" value="(20)Receive Payment" style="verticalAlign=bottom;endArrow=openThin;shadow=0;strokeWidth=1;dashed=1;endFill=0;exitX=-0.1;exitY=0.959;exitDx=0;exitDy=0;exitPerimeter=0;fontSize=12;labelBackgroundColor=none;html=1;entryX=1.036;entryY=0.971;entryDx=0;entryDy=0;entryPerimeter=0;" edge="1" parent="1" target="YT5Wtx-dwPLHvlLU4Rnl-5">
          <mxGeometry x="20" y="30" as="geometry">
            <mxPoint x="399.76573938506607" y="500.8695833333332" as="sourcePoint" />
            <mxPoint x="140" y="500" as="targetPoint" />
            <mxPoint as="offset" />
          </mxGeometry>
        </mxCell>
        <mxCell id="YT5Wtx-dwPLHvlLU4Rnl-29" value="(6)Obtain Data" style="html=1;verticalAlign=bottom;endArrow=none;startArrow=block;startFill=1;endFill=0;labelBackgroundColor=none;" edge="1" parent="1">
          <mxGeometry x="20" y="30" width="80" as="geometry">
            <mxPoint x="290" y="200" as="sourcePoint" />
            <mxPoint x="628.7847730600292" y="200.05555555555557" as="targetPoint" />
          </mxGeometry>
        </mxCell>
        <mxCell id="YT5Wtx-dwPLHvlLU4Rnl-30" value="(19)Return Sk" style="verticalAlign=bottom;endArrow=none;shadow=0;strokeWidth=1;dashed=1;endFill=0;startArrow=openThin;startFill=0;exitX=-0.3;exitY=0.887;exitDx=0;exitDy=0;exitPerimeter=0;fontSize=12;labelBackgroundColor=none;" edge="1" parent="1">
          <mxGeometry x="21" y="30" as="geometry">
            <mxPoint x="629.7847730600292" y="491.5795833333333" as="sourcePoint" />
            <mxPoint x="409.4626647144949" y="491.0555555555556" as="targetPoint" />
            <mxPoint as="offset" />
          </mxGeometry>
        </mxCell>
      </root>
    </mxGraphModel>
  </diagram>
</mxfile>
